Coordinates
version=1
nRows=26
nColumns=24
inDegrees=yes

Units are S.I. units (second, meters, Newtons, ...)
Angles are in degrees.

endheader
time	pelvis_tilt	pelvis_list	pelvis_rotation	pelvis_tx	pelvis_ty	pelvis_tz	hip_flexion_r	hip_adduction_r	hip_rotation_r	knee_angle_r	ankle_angle_r	subtalar_angle_r	mtp_angle_r	hip_flexion_l	hip_adduction_l	hip_rotation_l	knee_angle_l	ankle_angle_l	subtalar_angle_l	mtp_angle_l	lumbar_extension	lumbar_bending	lumbar_rotation
      3.13333333	      4.79652673	      0.86464261	      1.55104303	      0.59023631	      1.00188474	     -0.00522796	     21.90983652	     -2.61596920	     -4.37219033	    -14.24241499	      0.08489462	      5.04338479	      0.00000000	    -21.02957145	      2.09894542	     -4.37296245	    -15.22238809	     17.38483175	     15.12476349	      0.00000000	    -16.49409708	      1.82025226	     -7.94679615
      3.15000000	      4.83596461	      0.44421824	      1.93848590	      0.59479422	      1.00331096	     -0.00372030	     21.56106556	     -2.26090545	     -4.84357646	    -16.26078023	     -0.67912016	      5.04338461	      0.00000000	    -20.60724970	      1.20573216	     -4.33158035	    -18.62171395	     16.14547177	     15.12476369	      0.00000000	    -16.12564565	      2.70958876	     -8.55419357
      3.16666667	      4.85787860	      0.16396320	      2.54779387	      0.59881478	      1.00509390	     -0.00268573	     21.16701845	     -2.14345374	     -5.32195170	    -18.25635831	     -0.92048351	      5.04338454	      0.00000000	    -19.28649198	      0.30217981	     -4.21974934	    -23.45774525	     14.52680235	     15.12476399	      0.00000000	    -15.62746136	      3.54814270	     -8.92622147
      3.18333333	      5.01254735	     -0.14732986	      2.93212408	      0.60225661	      1.00725916	     -0.00092550	     20.49538146	     -1.87235307	     -5.60376564	    -19.95375347	     -0.75293739	      5.04338439	      0.00000000	    -17.34237597	     -0.71195818	     -4.59102462	    -29.42067159	     12.13088418	     15.12476419	      0.00000000	    -15.52253131	      4.23439966	     -9.14102929
      3.20000000	      5.16862627	     -0.49673843	      3.27710340	      0.60455630	      1.00938013	      0.00144735	     19.76046484	     -1.49220946	     -5.93839055	    -21.45619324	     -0.18682072	      5.04338441	      0.00000000	    -14.68582873	     -1.98607250	     -5.32341440	    -36.20554947	      8.71598241	     15.12476408	      0.00000000	    -15.42512521	      4.87202858	     -9.09664384
      3.21666667	      5.27753598	     -1.38237097	      3.67680407	      0.60666287	      1.01138288	      0.00412347	     18.69613179	     -0.50677701	     -6.57030808	    -22.17170830	      0.55166260	      5.04338456	      0.00000000	    -11.58374646	     -4.06605384	     -6.29350443	    -43.15136699	      4.53907370	     15.12476302	      0.00000000	    -15.33540237	      6.01139715	     -8.84303691
      3.23333333	      5.36468205	     -2.04229580	      3.64243822	      0.60789974	      1.01336965	      0.00741427	     17.62792401	      0.44689207	     -6.65920442	    -22.72034235	      1.57114471	      5.04338449	      0.00000000	     -8.44015563	     -5.98944507	     -7.59750265	    -49.52150736	      0.19503947	     15.12476086	      0.00000000	    -15.32117499	      6.70858562	     -8.02398705
      3.25000000	      5.54723073	     -2.93707709	      3.83418679	      0.60836540	      1.01587157	      0.01065537	     16.03425721	      1.67059424	     -7.04248405	    -22.32230276	      2.40585095	      5.04338453	      0.00000000	     -5.32613010	     -8.23784717	     -8.38495876	    -55.30317583	     -3.00049841	     15.12475823	      0.00000000	    -15.51769257	      7.60239252	     -7.25150642
      3.26666667	      5.75146999	     -3.56821602	      3.86755575	      0.60858297	      1.01876518	      0.01398003	     14.31011540	      2.69756574	     -7.17552438	    -21.69693256	      3.22367829	      5.04338459	      0.00000000	     -2.39937667	     -9.99175300	     -8.81352038	    -60.27828097	     -4.37892900	     15.12475524	      0.00000000	    -15.75153178	      8.10548493	     -6.29691199
      3.28333333	      5.84446241	     -4.03313508	      4.06370652	      0.60839301	      1.02199282	      0.01650775	     12.46729363	      3.50736283	     -7.41676851	    -20.57025377	      3.82128803	      5.04338469	      0.00000000	      0.60565936	    -11.27066229	     -8.66915992	    -64.52876667	     -3.95696098	     15.12475283	      0.00000000	    -15.88936766	      8.46841418	     -5.69966922
      3.30000000	      6.02172414	     -3.91123862	      3.80697214	      0.60767903	      1.02559866	      0.01920034	     10.69981258	      3.75739292	     -7.06877444	    -19.78595582	      4.49629097	      5.04338497	      0.00000000	      3.22016222	    -11.64812114	     -8.78795625	    -67.81076840	     -2.57902225	     15.12475113	      0.00000000	    -16.15020534	      8.01570822	     -4.62636147
      3.31666667	      6.18282715	     -3.78931548	      3.67592294	      0.60672877	      1.02935108	      0.02124410	      8.70576447	      3.94778315	     -6.86439203	    -18.46177994	      4.86827236	      5.04338522	      0.00000000	      5.82213580	    -11.77637883	     -8.60987808	    -70.27091666	     -0.94936678	     15.12475025	      0.00000000	    -16.47326187	      7.64932635	     -3.88086712
      3.33333333	      6.46163893	     -3.38803024	      3.46750309	      0.60599559	      1.03330425	      0.02328173	      6.55985526	      3.84446248	     -6.51744908	    -17.13541460	      5.25250415	      5.04338537	      0.00000000	      8.01257983	    -11.37897553	     -8.43103049	    -71.63315921	      0.45497158	     15.12474995	      0.00000000	    -16.78029864	      6.89230153	     -3.15465326
      3.35000000	      6.45623046	     -3.09098777	      3.22020949	      0.60504385	      1.03646342	      0.02504487	      4.67064329	      3.79053619	     -6.20260151	    -15.62994092	      5.49799396	      5.04338551	      0.00000000	     10.43890818	    -10.87774722	     -8.12850166	    -72.24564697	      1.51170627	     15.12475025	      0.00000000	    -16.87177951	      6.28586676	     -2.48160353
      3.36666667	      6.29554770	     -2.57878344	      2.67619094	      0.60365773	      1.03893808	      0.02682523	      3.13727935	      3.45886064	     -5.57109972	    -14.45182507	      5.87353031	      5.04338576	      0.00000000	     12.70994869	    -10.08062890	     -8.20294895	    -71.91561722	      2.27613448	     15.12475106	      0.00000000	    -16.82862573	      5.35095180	     -1.64737478
      3.38333333	      6.42777261	     -2.16127414	      2.30936014	      0.60227240	      1.04140891	      0.02787282	      1.30275394	      3.16817994	     -5.15536938	    -13.27713642	      6.22915805	      5.04338592	      0.00000000	     14.48204232	     -9.36135113	     -8.26026175	    -70.76568506	      2.83793069	     15.12475187	      0.00000000	    -17.14788830	      4.63991294	     -1.12921316
      3.40000000	      6.34686305	     -1.82091129	      1.90614841	      0.60099783	      1.04295858	      0.02907299	     -0.35488134	      2.94642885	     -4.72392953	    -11.98623170	      6.54772388	      5.04338608	      0.00000000	     16.25214592	     -8.77444763	     -8.46160181	    -68.89176390	      3.33602116	     15.12475267	      0.00000000	    -17.21334158	      3.99067690	     -0.75192889
      3.41666667	      6.26139448	     -1.69399791	      1.38883960	      0.59937337	      1.04367497	      0.03036861	     -1.89846017	      2.93503397	     -4.13840347	    -10.84805408	      6.91336918	      5.04338628	      0.00000000	     17.82966453	     -8.52849423	     -8.87924952	    -66.41111098	      3.87249513	     15.12475292	      0.00000000	    -17.21926191	      3.47077994	     -0.06137289
      3.43333333	      6.39204791	     -1.40095247	      0.95489864	      0.59767868	      1.04441690	      0.03148806	     -3.60974015	      2.72598557	     -3.58300998	     -9.87582288	      7.37063073	      5.04338645	      0.00000000	     18.83710703	     -8.20669887	     -9.54509545	    -63.06620367	      4.24709075	     15.12475308	      0.00000000	    -17.52139189	      2.83358046	      0.61505704
      3.45000000	      6.39512976	     -1.30925323	      0.31384033	      0.59580607	      1.04430485	      0.03295268	     -5.03807535	      2.68732759	     -2.80155558	     -9.15864553	      7.90771017	      5.04338661	      0.00000000	     19.69659100	     -8.19849298	    -10.45141766	    -59.09696812	      4.53023182	     15.12475253	      0.00000000	    -17.73978956	      2.25479572	      1.00593985
      3.46666667	      6.42757195	     -1.29721109	      0.19070959	      0.59470720	      1.04384790	      0.03348996	     -6.60736436	      2.73834973	     -2.55896906	     -8.35238752	      8.50236170	      5.04338672	      0.00000000	     20.25316967	     -8.16000743	    -11.15072645	    -54.39478459	      4.51525680	     15.12475197	      0.00000000	    -17.85470986	      1.99877319	      0.85034432
      3.48333333	      6.45111094	     -1.42991095	      0.07399715	      0.59268362	      1.04261402	      0.03400335	     -7.92161061	      2.92616490	     -2.31205058	     -7.96959567	      9.32854021	      5.04338650	      0.00000000	     20.73007234	     -8.30312316	    -11.99108595	    -49.30704654	      4.10859175	     15.12475139	      0.00000000	    -18.14400165	      1.68055903	      0.97329288
      3.50000000	      6.47555926	     -1.50679818	      0.09286031	      0.59155774	      1.04104648	      0.03413390	     -9.25339947	      3.04759943	     -2.29919051	     -7.68431673	     10.21681965	      5.04338656	      0.00000000	     20.79486971	     -8.26231951	    -12.98354832	    -43.49363321	      3.45540402	     15.12475085	      0.00000000	    -18.22031621	      1.51186341	      0.78280678
      3.51666667	      6.61757109	     -1.71179801	     -0.01342397	      0.59066668	      1.03932577	      0.03414851	    -10.86453291	      3.27134503	     -2.04108805	     -7.04369072	     10.89623968	      5.04338643	      0.00000000	     20.48804254	     -8.31862340	    -14.28817281	    -37.32952507	      2.56437386	     15.12475120	      0.00000000	    -18.50425895	      1.42502737	      0.79917472
      3.53333333	      6.29302927	     -1.97557131	     -0.24290430	      0.58945853	      1.03619887	      0.03399771	    -11.66014301	      3.50195919	     -1.71658433	     -7.05492620	     11.87567352	      5.04338652	      0.00000000	     20.55549001	     -8.29408751	    -15.56646323	    -30.99158207	      1.53883972	     15.12475215	      0.00000000	    -18.28423337	      1.42515740	      0.93280913
      3.55000000	      6.44391031	     -2.42584519	     -0.44218572	      0.58875470	      1.03363995	      0.03396718	    -13.15322019	      3.93775007	     -1.26932800	     -6.74710122	     12.58293176	      5.04338649	      0.00000000	     19.96816442	     -8.29424542	    -16.33301411	    -24.56962875	      0.50913171	     15.12475377	      0.00000000	    -18.58263630	      1.51032555	      0.88864866
